<?xml version="1.0" encoding="UTF-8" standalone="no"?>
<!DOCTYPE svg PUBLIC "-//W3C//DTD SVG 1.1//EN" "http://www.w3.org/Graphics/SVG/1.1/DTD/svg11.dtd">
<svg width="100%" height="100%" viewBox="0 0 167 167" version="1.1" xmlns="http://www.w3.org/2000/svg" xmlns:xlink="http://www.w3.org/1999/xlink" xml:space="preserve" xmlns:serif="http://www.serif.com/" style="fill-rule:evenodd;clip-rule:evenodd;stroke-linejoin:round;stroke-miterlimit:2;">
    <g transform="matrix(1,0,0,1,1110.32,-1055.64)">
        <g transform="matrix(7.62911,0,0,8.33333,-50433.1,2206.21)">
            <path d="M6476.01,-138.068C6482.04,-138.068 6486.93,-133.588 6486.93,-128.068C6486.93,-122.549 6482.04,-118.068 6476.01,-118.068C6469.98,-118.068 6465.08,-122.549 6465.08,-128.068C6465.08,-133.588 6469.98,-138.068 6476.01,-138.068ZM6475.41,-125.704L6480.18,-132.166C6480.49,-132.58 6481.11,-132.693 6481.57,-132.418C6482.03,-132.143 6482.15,-131.584 6481.85,-131.171L6476.53,-123.971C6476.23,-123.562 6475.62,-123.446 6475.16,-123.71L6470.46,-126.41C6469.99,-126.678 6469.86,-127.235 6470.16,-127.654C6470.45,-128.072 6471.07,-128.194 6471.54,-127.927L6475.41,-125.704Z" style="fill:rgb(0,0,247);"/>
        </g>
    </g>
</svg>
