<?xml version="1.0" encoding="UTF-8" standalone="no"?>
<!DOCTYPE svg PUBLIC "-//W3C//DTD SVG 1.1//EN" "http://www.w3.org/Graphics/SVG/1.1/DTD/svg11.dtd">
<svg width="100%" height="100%" viewBox="0 0 32 32" version="1.1" xmlns="http://www.w3.org/2000/svg" xmlns:xlink="http://www.w3.org/1999/xlink" xml:space="preserve" xmlns:serif="http://www.serif.com/" style="fill-rule:evenodd;clip-rule:evenodd;stroke-linejoin:round;stroke-miterlimit:2;">
    <g transform="matrix(1,0,0,1,-20,-20)">
        <g transform="matrix(1,0,0,1.00615,0,-0.122947)">
            <path d="M33.494,51.804C25.852,50.601 20,43.978 20,36C20,27.169 27.169,20 36,20C44.831,20 52,27.169 52,36C52,43.957 46.179,50.566 38.566,51.795L38.494,40.992L42.494,40.992L43.494,35.992L38.494,35.992L38.494,32.687C38.494,31.289 38.962,30.336 40.967,30.336L43.524,30.335L43.524,26.015C43.082,25.957 41.564,25.825 39.798,25.825C36.111,25.825 33.494,27.859 33.494,31.992L33.494,35.992L29.494,35.992L29.494,40.992L33.494,40.992L33.494,51.804Z" style="fill:rgb(107,114,128);"/>
        </g>
    </g>
</svg>
