<?xml version="1.0" encoding="UTF-8" standalone="no"?>
<!DOCTYPE svg PUBLIC "-//W3C//DTD SVG 1.1//EN" "http://www.w3.org/Graphics/SVG/1.1/DTD/svg11.dtd">
<svg width="100%" height="100%" viewBox="0 0 32 32" version="1.1" xmlns="http://www.w3.org/2000/svg" xmlns:xlink="http://www.w3.org/1999/xlink" xml:space="preserve" xmlns:serif="http://www.serif.com/" style="fill-rule:evenodd;clip-rule:evenodd;stroke-linejoin:round;stroke-miterlimit:2;">
    <g transform="matrix(1,0,0,1,-228,-72.3951)">
        <g transform="matrix(1,0,0,1,243.999,103.732)">
            <path d="M0,-31.337C-8.835,-31.337 -15.999,-24.174 -15.999,-15.336C-15.999,-8.268 -11.415,-2.271 -5.056,-0.155C-4.256,-0.008 -3.964,-0.502 -3.964,-0.926C-3.964,-1.306 -3.978,-2.312 -3.986,-3.647C-8.437,-2.68 -9.376,-5.792 -9.376,-5.792C-10.103,-7.64 -11.152,-8.132 -11.152,-8.132C-12.605,-9.125 -11.042,-9.105 -11.042,-9.105C-9.437,-8.992 -8.592,-7.456 -8.592,-7.456C-7.164,-5.011 -4.847,-5.717 -3.935,-6.127C-3.79,-7.161 -3.376,-7.866 -2.919,-8.266C-6.472,-8.67 -10.207,-10.042 -10.207,-16.173C-10.207,-17.92 -9.584,-19.348 -8.56,-20.467C-8.725,-20.872 -9.274,-22.498 -8.404,-24.701C-8.404,-24.701 -7.06,-25.131 -4.004,-23.061C-2.727,-23.416 -1.359,-23.593 0.002,-23.6C1.361,-23.593 2.73,-23.416 4.008,-23.061C7.062,-25.131 8.403,-24.701 8.403,-24.701C9.276,-22.498 8.727,-20.872 8.562,-20.467C9.588,-19.348 10.207,-17.92 10.207,-16.173C10.207,-10.027 6.466,-8.674 2.902,-8.278C3.476,-7.784 3.988,-6.808 3.988,-5.315C3.988,-3.176 3.968,-1.451 3.968,-0.926C3.968,-0.498 4.256,0 5.068,-0.157C11.421,-2.277 16.001,-8.27 16.001,-15.336C16.001,-24.174 8.837,-31.337 0,-31.337" style="fill:white;"/>
        </g>
    </g>
</svg>
