<?xml version="1.0" encoding="UTF-8" standalone="no"?>
<!DOCTYPE svg PUBLIC "-//W3C//DTD SVG 1.1//EN" "http://www.w3.org/Graphics/SVG/1.1/DTD/svg11.dtd">
<svg width="100%" height="100%" viewBox="0 0 112 80" version="1.1" xmlns="http://www.w3.org/2000/svg" xmlns:xlink="http://www.w3.org/1999/xlink" xml:space="preserve" xmlns:serif="http://www.serif.com/" style="fill-rule:evenodd;clip-rule:evenodd;stroke-linejoin:round;stroke-miterlimit:2;">
    <g transform="matrix(1,0,0,1,668,-347.846)">
        <g transform="matrix(1.6,0,0,1.6,440.8,-95.3539)">
            <path d="M-623,321.976C-623,319.23 -625.23,317 -627.976,317L-688.024,317C-690.77,317 -693,319.23 -693,321.976L-693,322.024C-693,324.77 -690.77,327 -688.024,327L-627.976,327C-625.23,327 -623,324.77 -623,322.024L-623,321.976ZM-623,301.976C-623,299.23 -625.23,297 -627.976,297L-688.024,297C-690.77,297 -693,299.23 -693,301.976L-693,302.024C-693,304.77 -690.77,307 -688.024,307L-627.976,307C-625.23,307 -623,304.77 -623,302.024L-623,301.976ZM-623,281.976C-623,279.23 -625.23,277 -627.976,277L-688.024,277C-690.77,277 -693,279.23 -693,281.976L-693,282.024C-693,284.77 -690.77,287 -688.024,287L-627.976,287C-625.23,287 -623,284.77 -623,282.024L-623,281.976Z" style="fill:rgb(173,178,188);"/>
        </g>
    </g>
</svg>
