<?xml version="1.0" encoding="UTF-8" standalone="no"?>
<!DOCTYPE svg PUBLIC "-//W3C//DTD SVG 1.1//EN" "http://www.w3.org/Graphics/SVG/1.1/DTD/svg11.dtd">
<svg width="100%" height="100%" viewBox="0 0 32 33" version="1.1" xmlns="http://www.w3.org/2000/svg" xmlns:xlink="http://www.w3.org/1999/xlink" xml:space="preserve" xmlns:serif="http://www.serif.com/" style="fill-rule:evenodd;clip-rule:evenodd;stroke-linejoin:round;stroke-miterlimit:2;">
    <g transform="matrix(1,0,0,1,-384,-20.0005)">
        <path d="M416,29.625C416,24.313 411.687,20.001 406.375,20.001L393.625,20.001C388.313,20.001 384,24.313 384,29.625L384,42.376C384,47.688 388.313,52.001 393.625,52.001L406.375,52.001C411.687,52.001 416,47.688 416,42.376L416,29.625ZM413.5,29.625L413.5,42.376C413.5,46.308 410.308,49.501 406.375,49.501L393.625,49.501C389.693,49.501 386.5,46.308 386.5,42.376C386.5,42.376 386.5,29.625 386.5,29.625C386.5,25.693 389.693,22.501 393.625,22.501C393.625,22.501 406.375,22.501 406.375,22.501C410.308,22.501 413.5,25.693 413.5,29.625ZM400,27.544C404.59,27.544 408.317,31.346 408.317,36.03C408.317,40.713 404.59,44.516 400,44.516C395.409,44.516 391.682,40.713 391.682,36.03C391.682,31.346 395.409,27.544 400,27.544ZM400,30.044C403.224,30.044 405.817,32.74 405.817,36.03C405.817,39.32 403.224,42.016 400,42.016C396.775,42.016 394.182,39.32 394.182,36.03C394.182,32.74 396.775,30.044 400,30.044ZM408.603,25.344C409.665,25.344 410.526,26.206 410.526,27.267C410.526,28.328 409.665,29.19 408.603,29.19C407.542,29.19 406.681,28.328 406.681,27.267C406.681,26.206 407.542,25.344 408.603,25.344Z" style="fill:rgb(107,114,128);"/>
    </g>
</svg>
