<?xml version="1.0" encoding="UTF-8" standalone="no"?>
<!DOCTYPE svg PUBLIC "-//W3C//DTD SVG 1.1//EN" "http://www.w3.org/Graphics/SVG/1.1/DTD/svg11.dtd">
<svg width="100%" height="100%" viewBox="0 0 32 27" version="1.1" xmlns="http://www.w3.org/2000/svg" xmlns:xlink="http://www.w3.org/1999/xlink" xml:space="preserve" xmlns:serif="http://www.serif.com/" style="fill-rule:evenodd;clip-rule:evenodd;stroke-linejoin:round;stroke-miterlimit:2;">
    <g transform="matrix(1,0,0,1,-72,-22.9976)">
        <g transform="matrix(1,0,0,1,104,45.9246)">
            <path d="M0,-19.849C-1.177,-19.327 -2.443,-18.974 -3.771,-18.815C-2.415,-19.628 -1.374,-20.914 -0.884,-22.447C-2.152,-21.695 -3.558,-21.149 -5.053,-20.854C-6.251,-22.13 -7.957,-22.927 -9.845,-22.927C-13.471,-22.927 -16.41,-19.988 -16.41,-16.362C-16.41,-15.848 -16.352,-15.347 -16.24,-14.866C-21.697,-15.14 -26.534,-17.754 -29.772,-21.726C-30.337,-20.756 -30.661,-19.628 -30.661,-18.425C-30.661,-16.148 -29.502,-14.138 -27.741,-12.961C-28.817,-12.995 -29.829,-13.29 -30.714,-13.782C-30.715,-13.754 -30.715,-13.727 -30.715,-13.699C-30.715,-10.518 -28.452,-7.865 -25.448,-7.262C-25.999,-7.112 -26.579,-7.032 -27.178,-7.032C-27.601,-7.032 -28.012,-7.073 -28.413,-7.149C-27.578,-4.541 -25.153,-2.643 -22.28,-2.59C-24.527,-0.829 -27.358,0.22 -30.434,0.22C-30.964,0.22 -31.486,0.189 -32,0.129C-29.095,1.991 -25.644,3.078 -21.936,3.078C-9.86,3.078 -3.257,-6.926 -3.257,-15.601C-3.257,-15.886 -3.263,-16.169 -3.276,-16.451C-1.993,-17.376 -0.88,-18.532 0,-19.849" style="fill:rgb(107,114,128);fill-rule:nonzero;"/>
        </g>
    </g>
</svg>
